<svg id="38d63fae-3dd2-44d4-b968-84e347c58bcb" data-name="Calque 1" xmlns="http://www.w3.org/2000/svg" viewBox="0 0 200 200"><defs><style>.\31 268f094-78f2-4de1-b74b-8caf56230012{fill:#fff;}</style></defs><title>carnet-plongée-w</title><path class="1268f094-78f2-4de1-b74b-8caf56230012" d="M148.06,198.83H7.74V1H148.06a44.75,44.75,0,0,1,44.7,44.7V154.14A44.74,44.74,0,0,1,148.06,198.83ZM14,192.6H148.06a38.5,38.5,0,0,0,38.46-38.46V45.7A38.5,38.5,0,0,0,148.06,7.24H14Z"/><path class="1268f094-78f2-4de1-b74b-8caf56230012" d="M174.57,127.11H24.89V66.83H174.57ZM29.05,123H170.41V71H29.05Z"/><polygon class="1268f094-78f2-4de1-b74b-8caf56230012" points="154.15 120.77 147.4 105.03 142.59 114.64 90.72 114.64 82.41 108.4 58.79 108.4 52.55 91.77 46.9 91.77 38.58 83.46 26.97 83.46 26.97 79.3 40.3 79.3 48.62 87.62 55.44 87.62 61.67 104.25 83.79 104.25 92.11 110.48 140.02 110.48 147.69 95.15 153.41 108.51 162.62 77.22 170.41 77.22 170.41 81.38 165.73 81.38 154.15 120.77"/><path class="1268f094-78f2-4de1-b74b-8caf56230012" d="M98.35,137v-3.39a8.21,8.21,0,0,1,3.72-.92,6.42,6.42,0,0,1,4.19,1.26,4,4,0,0,1,1.55,3.27,3.81,3.81,0,0,1-2.52,3.82,3.4,3.4,0,0,1,2.84,3.69,4.06,4.06,0,0,1-1.58,3.36,7,7,0,0,1-4.43,1.26,10,10,0,0,1-4.41-.85V145a8.45,8.45,0,0,0,4.11,1.1,3.08,3.08,0,0,0,1.91-.53,1.6,1.6,0,0,0,.69-1.32c0-1.21-1.13-1.82-3.37-1.82h-.87v-3h.87a4.63,4.63,0,0,0,2.17-.45,1.46,1.46,0,0,0,.85-1.35c0-1.15-.75-1.72-2.25-1.72A6.67,6.67,0,0,0,98.35,137Z"/><path class="1268f094-78f2-4de1-b74b-8caf56230012" d="M119.41,141a3.81,3.81,0,0,1,2.32,3.77,4.21,4.21,0,0,1-1.66,3.46,7.83,7.83,0,0,1-8.61.06,4.11,4.11,0,0,1-1.58-3.4,4,4,0,0,1,2.37-3.82,3.85,3.85,0,0,1-2.12-3.52,4.35,4.35,0,0,1,1.58-3.57,6.18,6.18,0,0,1,4-1.29,6.6,6.6,0,0,1,4.13,1.22,4.31,4.31,0,0,1,1.58,3.64A3.79,3.79,0,0,1,119.41,141Zm-3.64,5.66a2.43,2.43,0,0,0,1.73-.56,1.82,1.82,0,0,0,.59-1.36,1.94,1.94,0,0,0-.61-1.47,2.42,2.42,0,0,0-1.71-.58,2.16,2.16,0,0,0-1.69.63,2.12,2.12,0,0,0-.56,1.47,1.8,1.8,0,0,0,.54,1.32A2.3,2.3,0,0,0,115.77,146.61Zm0-11.07a1.81,1.81,0,0,0-1.47.56,2,2,0,0,0-.47,1.36,1.9,1.9,0,0,0,.57,1.47,2.06,2.06,0,0,0,1.45.52,2,2,0,0,0,1.42-.52,1.9,1.9,0,0,0,.57-1.47C117.81,136.17,117.12,135.54,115.74,135.54Z"/><path class="1268f094-78f2-4de1-b74b-8caf56230012" d="M130.09,149.25l1.44-16.81h4.22l2.34,6.09c.4,1,.74,1.94,1,2.79s.46,1.45.55,1.8l.12.5a44.69,44.69,0,0,1,1.75-5.09l2.37-6.09h4.21l1.75,16.81H146l-.63-6.51-.32-4.91c-.43,1.25-1,2.88-1.8,4.91l-2.37,6.34h-2.27l-2.34-6.34c-.38-1-.71-2-1-2.76s-.45-1.39-.53-1.7l-.12-.45c0,1.18-.08,2.82-.23,4.91l-.52,6.51Z"/><path class="1268f094-78f2-4de1-b74b-8caf56230012" d="M153,149.25V132.44h3.84v16.81Z"/><path class="1268f094-78f2-4de1-b74b-8caf56230012" d="M160.32,149.25V132.44h4.22l3.91,7q.83,1.47,1.44,2.76a15.89,15.89,0,0,1,.78,1.81l.2.54a41.54,41.54,0,0,1-.25-5.11v-7h3.85v16.81h-4.22l-4-6.95c-.53-.9-1-1.79-1.41-2.66s-.68-1.52-.83-1.93l-.2-.63a32.13,32.13,0,0,1,.37,5.22v6.95Z"/><path class="1268f094-78f2-4de1-b74b-8caf56230012" d="M25.82,45.13h5.79a8.6,8.6,0,0,1,6.21,2.33,7.75,7.75,0,0,1,2.42,5.8,8.48,8.48,0,0,1-2.38,6.36,8.64,8.64,0,0,1-6.3,2.32H25.82ZM29.76,58.8h1.75a4.49,4.49,0,0,0,3.58-1.45,6,6,0,0,0,1.26-4.09,5,5,0,0,0-1.28-3.6,4.64,4.64,0,0,0-3.59-1.36H29.76Z"/><path class="1268f094-78f2-4de1-b74b-8caf56230012" d="M43.11,61.94V45.13H47V61.94Z"/><path class="1268f094-78f2-4de1-b74b-8caf56230012" d="M64.79,45.13,59.12,61.94H54.88L49.29,45.13h4.15l2,6.71c.37,1.2.69,2.35.95,3.45s.44,1.91.53,2.41l.12.78a51.76,51.76,0,0,1,1.62-6.64l2-6.71Z"/><path class="1268f094-78f2-4de1-b74b-8caf56230012" d="M70.75,58.88h6.58v3.06H66.88V45.13H77.23V48.2H70.75V52h5.78v3.05H70.75Z"/><path class="1268f094-78f2-4de1-b74b-8caf56230012" d="M102.83,52H99.56l-.72,3.37H102V58.1H98.26l-.82,3.84H94.37l.8-3.84H91.78L91,61.94H87.88l.8-3.84H86.19V55.33h3.09L90,52H87V49.07H90.6l.83-3.92h3.09l-.82,3.92h3.39l.82-3.92H101l-.83,3.92h2.65Zm-7.06,3.37.7-3.37h-3.4l-.72,3.37Z"/><path class="1268f094-78f2-4de1-b74b-8caf56230012" d="M117.47,55.38v3.1h-2v3.46h-3.62V58.48H104.7v-3.1l5-9.8h5.79v9.8Zm-9.2,0h3.59V48Z"/><path class="1268f094-78f2-4de1-b74b-8caf56230012" d="M118.22,52V48.3l4.59-2.67H126V61.94h-3.61V49.54Z"/></svg>