<svg id="b1672c9c-fc82-410b-9a4c-e423a62014e6" data-name="Calque 1" xmlns="http://www.w3.org/2000/svg" viewBox="0 0 200 200"><defs><style>.\36 4e69c16-db5f-4fe7-b0af-859262fe11f7{fill:#fff;}</style></defs><title>gestion-w</title><path class="64e69c16-db5f-4fe7-b0af-859262fe11f7" d="M188.15,156l-13.71,1.38A90.47,90.47,0,0,0,121.17,21a3.62,3.62,0,0,0-1.83,7,83.22,83.22,0,0,1,48.79,125.82l-4.57-13.71a3.61,3.61,0,1,0-6.86,2.28l7.75,23.29,24.43-2.46a3.62,3.62,0,1,0-.73-7.2Z"/><path class="64e69c16-db5f-4fe7-b0af-859262fe11f7" d="M95.89,114.57h19.29a3.62,3.62,0,1,0,0-7.23H99.51V86.83a3.62,3.62,0,0,0-7.24,0V111a3.62,3.62,0,0,0,3.62,3.62Z"/><path class="64e69c16-db5f-4fe7-b0af-859262fe11f7" d="M56.11,108.54A42.22,42.22,0,1,0,98.33,66.33,42.22,42.22,0,0,0,56.11,108.54Zm42.22-35A35,35,0,1,1,73.59,83.81,34.86,34.86,0,0,1,98.33,73.56Z"/><path class="64e69c16-db5f-4fe7-b0af-859262fe11f7" d="M153.83,170.55A83.22,83.22,0,0,1,25.17,148.21l15.33,1A3.62,3.62,0,1,0,41,142l-24.48-1.6L9.55,163.94a3.62,3.62,0,1,0,6.94,2l3.59-12.17a90.38,90.38,0,0,0,138.58,22.13,3.62,3.62,0,0,0-4.83-5.39Z"/><path class="64e69c16-db5f-4fe7-b0af-859262fe11f7" d="M14.87,132.9a3.61,3.61,0,0,0,2.65-4.37A83.25,83.25,0,0,1,98.19,25.32l-8.25,13a3.62,3.62,0,0,0,6.11,3.88l13.17-20.71L91.9,4.07a3.62,3.62,0,1,0-5.13,5.1h0l8.94,9A90.53,90.53,0,0,0,10.49,130.26,3.61,3.61,0,0,0,14.87,132.9Z"/></svg>