<svg id="Calque_1" data-name="Calque 1" xmlns="http://www.w3.org/2000/svg" viewBox="0 0 300 300"><title>weather</title><path d="M151.66,17a134.27,134.27,0,0,1,95,229.22A134.28,134.28,0,1,1,56.71,56.29,133.39,133.39,0,0,1,151.66,17m0-3.23a137.5,137.5,0,1,0,137.5,137.5,137.5,137.5,0,0,0-137.5-137.5Z"/><path d="M226.07,128.57a22.43,22.43,0,0,0-13.32-6.44,41.65,41.65,0,0,0-78.08-17.22,32.57,32.57,0,0,0-12.27-2.43A32.08,32.08,0,0,0,92.81,122a22.49,22.49,0,0,0,.34,45h117a22.49,22.49,0,0,0,15.9-38.39Zm.62,15.9A16.54,16.54,0,0,1,210.17,161h-117a16.52,16.52,0,1,1,0-33c.49,0,1,0,1.42.07a3,3,0,0,0,3.06-2,26.3,26.3,0,0,1,24.77-17.59,26,26,0,0,1,12.23,3,3,3,0,0,0,4.11-1.39A35.68,35.68,0,0,1,206.87,125a3,3,0,0,0,.89,2.12,3,3,0,0,0,2.14.86h.29a16.51,16.51,0,0,1,16.5,16.51Z"/><path d="M101.08,181.52l-8.68,8.69a3,3,0,0,0,0,4.22,3,3,0,0,0,4.22,0l8.69-8.69a3,3,0,0,0,0-4.22A3.06,3.06,0,0,0,101.08,181.52Z"/><path d="M101.08,205.41,92.4,214.1a3,3,0,0,0,0,4.22,3,3,0,0,0,4.22,0l8.69-8.68a3,3,0,0,0,0-4.23A3.08,3.08,0,0,0,101.08,205.41Z"/><path d="M136.29,181.52l-8.69,8.69a3,3,0,0,0,0,4.22,3,3,0,0,0,4.23,0l8.68-8.69a3,3,0,0,0-4.22-4.22Z"/><path d="M136.29,205.41l-8.69,8.69a3,3,0,0,0,0,4.22,3,3,0,0,0,4.23,0l8.68-8.68a3,3,0,0,0-4.22-4.23Z"/><path d="M171.49,181.52l-8.68,8.69a3,3,0,0,0,0,4.22,3,3,0,0,0,4.22,0l8.68-8.69a3,3,0,1,0-4.22-4.22Z"/><path d="M171.49,205.41l-8.68,8.69a3,3,0,0,0,0,4.22,3,3,0,0,0,4.22,0l8.68-8.68a3,3,0,1,0-4.22-4.23Z"/><path d="M206.7,181.52,198,190.21a3,3,0,0,0,4.22,4.22l8.69-8.68a3,3,0,0,0,.87-2.12,3,3,0,0,0-5.09-2.11Z"/><path d="M206.7,205.41,198,214.1a3,3,0,0,0,0,4.22,3,3,0,0,0,2.11.88,3,3,0,0,0,2.11-.88l8.69-8.68a3,3,0,1,0-4.22-4.23Z"/></svg>