<svg id="Calque_1" data-name="Calque 1" xmlns="http://www.w3.org/2000/svg" viewBox="0 0 300 300"><title>weather</title><path d="M152.16,12.56a134.28,134.28,0,0,1,95,229.23A134.28,134.28,0,0,1,57.21,51.89a133.44,133.44,0,0,1,94.95-39.33m0-3.22a137.5,137.5,0,1,0,137.5,137.5A137.5,137.5,0,0,0,152.16,9.34Z"/><path d="M229.59,156.58a22.49,22.49,0,0,0-13.31-6.44,41.54,41.54,0,0,0-39.15-38.7,24.47,24.47,0,0,0-21.34-12.61,24.14,24.14,0,0,0-8.64,1.58,31.33,31.33,0,0,0-58.33,12.92,17.29,17.29,0,0,0,2.63,34.37h6.17c-.4.75-.77,1.51-1.11,2.3a22.46,22.46,0,0,0,.35,44.92H213.7a22.46,22.46,0,0,0,15.89-38.34ZM101.67,141.73H91.45a11.32,11.32,0,0,1-.06-22.63h.21a2.87,2.87,0,0,0,2.17-.85,3,3,0,0,0,.9-2.14,25.36,25.36,0,0,1,48.42-10.58,3,3,0,0,0,4.1,1.39,18.39,18.39,0,0,1,22.89,4.7l-.37.05c-.56.07-1.12.16-1.68.25-.23,0-.46.07-.69.12A41.41,41.41,0,0,0,141,128.68l-.18.27c-.42.58-.83,1.17-1.21,1.79s-.66,1.09-1,1.64l-.34.57a32.32,32.32,0,0,0-8.13-2.15,31.53,31.53,0,0,0-4.11-.28h0c-.72,0-1.43,0-2.13.08l-.7.06c-.48,0-.95.09-1.42.15l-.8.11c-.51.09-1,.18-1.54.29s-1,.22-1.45.34l-.71.19c-.45.13-.9.26-1.34.41l-.33.11A32,32,0,0,0,101.67,141.73Zm3.74,4.89s0,0,.06-.07a29,29,0,0,1,1.93-2.19l.09-.1c.27-.27.56-.54.84-.8l.56-.51.65-.55c.45-.37.9-.73,1.38-1.06h0c.52-.37,1.06-.72,1.6-1.05l.12-.07a26.69,26.69,0,0,1,5.38-2.45h0a25.24,25.24,0,0,1,3.86-.93l.23,0c.53-.08,1.07-.14,1.61-.19l.45,0c.62,0,1.25-.08,1.88-.08h0a25.92,25.92,0,0,1,12.21,3,2.85,2.85,0,0,0,.69.25,2.94,2.94,0,0,0,3.41-1.64,35.79,35.79,0,0,1,32.38-20.8h.49A35.69,35.69,0,0,1,210.4,153a3,3,0,0,0,.89,2.13,3.06,3.06,0,0,0,2.12.86h0l.28,0a16.49,16.49,0,0,1,0,33H96.86a16.49,16.49,0,1,1,0-33c.48,0,1,0,1.42.07a3,3,0,0,0,3.06-2A26.06,26.06,0,0,1,105.41,146.62Z"/></svg>