<?xml version="1.0" encoding="utf-8"?>
<!-- Generator: Adobe Illustrator 22.1.0, SVG Export Plug-In . SVG Version: 6.00 Build 0)  -->
<svg version="1.1" id="Calque_1" xmlns="http://www.w3.org/2000/svg" xmlns:xlink="http://www.w3.org/1999/xlink" x="0px" y="0px"
	 viewBox="0 0 300 300" style="enable-background:new 0 0 300 300;" xml:space="preserve">
<style type="text/css">
	.st0{fill:#00ACCC;}
</style>
<title>weather</title>
<path class="st0" d="M153,18.7c74.2-0.1,134.3,60,134.4,134.2c0,35.7-14.1,69.9-39.4,95.1c-52.5,52.5-137.5,52.5-190,0
	S5.6,110.5,58,58C83.2,32.8,117.4,18.6,153,18.7 M153.1,15.5C77.1,15.5,15.5,77,15.5,152.9c0,75.9,61.5,137.5,137.4,137.5
	S290.5,229,290.5,153c0,0,0,0,0,0C290.5,77.1,228.9,15.5,153.1,15.5L153.1,15.5z"/>
<path class="st0" d="M285.1,185.7c-14.7,0-22.4-5.4-29.1-10.2c-6.4-4.5-12.5-8.8-24.8-8.8s-18.4,4.3-24.8,8.8
	c-6.8,4.8-14.5,10.2-29.1,10.2s-22.4-5.4-29.1-10.2c-6.4-4.5-12.5-8.8-24.8-8.8s-18.3,4.3-24.8,8.8c-6.8,4.8-14.5,10.2-29.1,10.2
	s-22.3-5.4-29.1-10.2c-6.4-4.5-12.5-8.8-24.8-8.8v-7.5c14.7,0,22.4,5.4,29.1,10.2c6.4,4.5,12.5,8.8,24.8,8.8s18.4-4.3,24.8-8.8
	c6.8-4.8,14.5-10.2,29.1-10.2s22.4,5.4,29.1,10.2c6.4,4.5,12.5,8.8,24.8,8.8s18.4-4.3,24.8-8.8c6.8-4.8,14.5-10.2,29.1-10.2
	s22.4,5.4,29.1,10.2c6.4,4.5,12.5,8.8,24.8,8.8V185.7z"/>
</svg>
