<svg id="Calque_1" data-name="Calque 1" xmlns="http://www.w3.org/2000/svg" viewBox="0 0 300 300"><title>weather</title><path d="M153,18.72A134.28,134.28,0,0,1,248,248,134.28,134.28,0,1,1,58.05,58.05a133.4,133.4,0,0,1,95-39.33m0-3.22A137.5,137.5,0,1,0,290.5,153,137.5,137.5,0,0,0,153,15.5Z"/><path d="M285.13,185.72c-14.68,0-22.36-5.42-29.14-10.21-6.43-4.54-12.51-8.83-24.8-8.83s-18.36,4.29-24.79,8.83c-6.78,4.79-14.46,10.21-29.14,10.21s-22.36-5.42-29.13-10.21c-6.43-4.54-12.51-8.83-24.8-8.83S105,171,98.54,175.51c-6.78,4.79-14.46,10.21-29.13,10.21s-22.35-5.42-29.13-10.21c-6.42-4.54-12.5-8.83-24.78-8.83v-7.51c14.67,0,22.35,5.42,29.12,10.2,6.43,4.54,12.5,8.83,24.79,8.83s18.36-4.29,24.79-8.83c6.78-4.78,14.46-10.2,29.13-10.2s22.36,5.42,29.13,10.2c6.44,4.54,12.51,8.83,24.8,8.83s18.37-4.29,24.8-8.83c6.78-4.78,14.46-10.2,29.13-10.2s22.36,5.42,29.14,10.2c6.43,4.54,12.51,8.83,24.8,8.83Z"/></svg>