<?xml version="1.0" encoding="utf-8"?>
<!-- Generator: Adobe Illustrator 22.1.0, SVG Export Plug-In . SVG Version: 6.00 Build 0)  -->
<svg version="1.1" id="Calque_1" xmlns="http://www.w3.org/2000/svg" xmlns:xlink="http://www.w3.org/1999/xlink" x="0px" y="0px"
	 viewBox="0 0 300 300" style="enable-background:new 0 0 300 300;" xml:space="preserve">
<style type="text/css">
	.st0{fill:#00ACCC;}
</style>
<title>weather</title>
<path class="st0" d="M153,18.7c74.2-0.1,134.3,60,134.4,134.2c0,35.7-14.1,69.9-39.4,95.1c-52.5,52.5-137.5,52.5-190,0
	S5.6,110.5,58,58C83.2,32.8,117.4,18.6,153,18.7 M153.1,15.5C77.1,15.5,15.5,77,15.5,152.9c0,75.9,61.5,137.5,137.4,137.5
	S290.5,229,290.5,153c0,0,0,0,0,0C290.5,77.1,228.9,15.5,153.1,15.5L153.1,15.5z"/>
<path class="st0" d="M76.6,124.4c-11.2,0.1-21.5,6.1-27.1,15.9l0,0c-3.9,7.7-6.3,16.6-10.2,23.6s-9.1,12.2-19.1,13.1
	c-2.2,0.1-1.8,3.5,0.4,3.3c11-1.2,17.3-7.4,21.5-14.9s6.5-16.3,10.2-23.6c6.4-10.5,16.4-14.6,26.3-14.2c8.2,0.5,16.1,4.5,20.7,10.9
	c-6.5,2.3-11.5,7.8-13.1,14.5c-1.5,7.1,0.7,14.4,5.8,19.5c-0.9,2.2-2,4.4-3.2,6.5c-3.9,7-9,12.2-19,13.2c-0.9,0.2-1.5,1-1.3,1.9
	c0.2,0.8,0.9,1.4,1.7,1.3c11-1.2,17.3-7.4,21.5-14.9s6.5-16.3,10.2-23.6c7.9-13.6,25.3-18.2,38.9-10.4c3.1,1.8,5.8,4.2,8.1,7
	c-9.4,3.3-15,13-13.2,22.9c1.8,9.9,10.9,18.8,26.7,18.8c0.9,0.1,1.6-0.6,1.7-1.4c0.1-0.9-0.6-1.6-1.4-1.7c-0.1,0-0.2,0-0.3,0
	c-14.6,0-22-7.9-23.6-16.2s2.8-17.2,13.1-20c0.8-0.1,1.4-0.9,1.2-1.7c0-0.2-0.1-0.4-0.2-0.6c-5.1-8.5-14.6-13.4-24.6-14
	c-11.9-0.6-23.2,5.5-29.2,15.9l0,0c-2.3,4.5-4,9.2-5.8,13.8c-3.7-4.2-5.2-9.9-4-15.4c1.3-5.9,5.6-11,13-12.9c0.9-0.2,1.4-1.1,1.2-2
	c0-0.2-0.1-0.3-0.2-0.5c-5.2-8.5-14.7-13.5-24.7-14.1H76.6z"/>
<path class="st0" d="M70.1,197c-1.7,0.1-3.2-1.3-3.3-3c-0.2-1.7,1.1-3.3,2.8-3.5c0,0,0,0,0,0c10.2-1,14.5-6.5,17.8-12.4
	c1-1.7,1.8-3.5,2.6-5.3c-5-5.4-7-12.9-5.5-20.1c1.5-6.6,6-12,12.1-14.8c-4.7-5.2-11.2-8.3-18.2-8.6c-10.2-0.5-19.3,4.4-24.8,13.3
	c-1.6,3.2-2.9,6.7-4.3,10.3c-1.6,4.5-3.6,9-5.8,13.3c-5.3,9.5-12.8,14.6-22.8,15.7c-1.2,0.2-2.3-0.4-3-1.3c-0.7-1-0.8-2.3-0.3-3.4
	c0.5-1,1.5-1.7,2.7-1.7c10-1,14.5-6.5,17.8-12.4c2-3.9,3.8-8,5.3-12.1c1.5-3.8,3-7.7,4.8-11.4l0.1-0.1c6.3-10.4,16.6-16.5,28.5-16.6
	h2.1c11.1,0.7,20.8,6.2,25.9,14.8c0.5,0.8,0.7,1.8,0.4,2.7c-0.3,1-1.2,1.8-2.2,2.2c-6.4,1.7-10.6,5.8-11.9,11.8
	c-0.9,4-0.2,8.2,2,11.7c1.4-3.8,3-7.6,4.8-11.2c6.3-10.9,18.1-17.4,30.7-16.7c11,0.7,20.7,6.2,25.8,14.8c0.6,0.8,0.7,1.9,0.3,2.8
	c-0.4,1-1.2,1.7-2.3,1.9c-10,2.7-13.1,11.3-11.8,18.1c1.4,7.2,7.9,14.9,22,14.9c1.1-0.1,2.2,0.5,2.8,1.5c0.6,1.1,0.6,2.4,0,3.4
	c-0.6,1-1.7,1.6-2.9,1.5l0,0c-18.1,0-26.5-10.8-28.2-20.1c-1.9-9.8,3.1-19.6,12.2-23.8c-4.8-5.1-11.3-8.2-18.3-8.5
	c-10.1-0.6-19.6,4.6-24.6,13.3c-1.6,3.2-2.9,6.7-4.3,10.3c-1.7,4.5-3.6,9-5.8,13.3c-5.4,9.5-12.8,14.6-22.8,15.7L70.1,197z
	 M70,193.8C70,193.8,70,193.8,70,193.8c1.7-0.1,3.3-0.4,4.9-0.9C73.3,193.3,71.7,193.6,70,193.8z M93.1,173.9c-0.9,2-1.8,4-2.9,5.9
	c-0.6,1.1-1.3,2.3-2.1,3.4c0.8-1.1,1.5-2.3,2.2-3.4C91.3,177.9,92.2,175.9,93.1,173.9z M20.3,178.6c0,0,0,0.1,0,0.1
	c1.9-0.2,3.7-0.6,5.5-1.2C24,178.1,22.2,178.5,20.3,178.6L20.3,178.6z M93.8,172.2L93.8,172.2c0.7-1.8,1.4-3.5,2.1-5.3
	c1-2.7,2.1-5.4,3.3-8c-1.2,2.7-2.3,5.5-3.3,8.2c-0.3,0.9-0.7,1.8-1.1,2.7L93.8,172.2z M88.8,165.3c1,2.3,2.4,4.4,4.2,6.2l0,0l-1-1.2
	C90.7,168.7,89.7,167,88.8,165.3L88.8,165.3z M126.4,141.1c0.6,0,1.1,0,1.6,0c8.6,0.4,16.7,4.6,22,11.4l1.2,1.6
	c-4.6-7.5-13.4-12.5-23.2-13.1c-1.9-0.1-3.7,0-5.6,0.2C123.8,141.2,125.1,141.1,126.4,141.1L126.4,141.1z M87.8,152.9
	c0,0.2-0.1,0.4-0.1,0.6l-0.1,0.3l0.1-0.3C87.8,153.3,87.8,153.1,87.8,152.9z M77,126c0.5,0,1.1,0,1.6,0c8.9,0.5,17.1,4.9,21.9,11.6
	l1.2,1.7h0.1l0,0l0,0c-4.6-7.7-13.3-12.7-23.3-13.3h-2c-1.7,0-3.3,0.2-5,0.5C73.4,126.2,75.2,126,77,126z"/>
<path class="st0" d="M195.7,124.4c-11.2,0.1-21.5,6.1-27.1,15.9l0,0c-3.9,7.7-6.3,16.6-10.2,23.6s-9.1,12.2-19.1,13.2
	c-2.2,0.1-1.8,3.5,0.4,3.3c11-1.2,17.3-7.4,21.5-14.9s6.5-16.3,10.2-23.6c6.4-10.5,16.5-14.6,26.3-14.2c8.2,0.5,16.1,4.5,20.7,10.9
	c-6.5,2.3-11.5,7.8-13.1,14.5c-1.5,7.1,0.7,14.4,5.8,19.5c-0.9,2.2-2,4.3-3.1,6.4c-3.9,7-8.9,12.2-19,13.2c-0.9,0.2-1.5,1-1.3,1.9
	c0.2,0.8,0.9,1.4,1.7,1.3c11-1.2,17.3-7.4,21.5-14.9s6.5-16.3,10.2-23.6c7.8-13.6,25.2-18.3,38.8-10.5c3.1,1.8,5.9,4.2,8.2,7
	c-9.4,3.3-15,13-13.2,22.9c1.8,9.9,10.9,18.8,26.7,18.8c0.9,0.1,1.6-0.6,1.7-1.4c0.1-0.9-0.6-1.6-1.4-1.7c-0.1,0-0.2,0-0.3,0
	c-14.6,0-22-7.9-23.6-16.2s2.8-17.2,13.1-20c0.8-0.1,1.4-0.9,1.2-1.7c0-0.2-0.1-0.4-0.2-0.6c-5.1-8.5-14.6-13.4-24.6-14
	c-11.9-0.6-23.2,5.5-29.1,15.9l0,0c-2.2,4.5-4.1,9.1-5.8,13.8c-3.7-4.2-5.2-9.9-4-15.4c1.3-5.9,5.6-11,12.9-12.9
	c0.9-0.2,1.4-1.1,1.2-2c0-0.2-0.1-0.3-0.2-0.5c-5.1-8.5-14.6-13.4-24.6-14L195.7,124.4z"/>
<path class="st0" d="M189.3,197c-1.7,0.1-3.2-1.3-3.3-3c-0.2-1.7,1.1-3.3,2.8-3.5c0,0,0,0,0,0c10.2-1,14.6-6.5,17.8-12.4
	c1-1.7,1.9-3.5,2.6-5.3c-5-5.4-7-12.9-5.5-20.1c1.5-6.5,6-12,12.1-14.8c-4.7-5.2-11.2-8.3-18.2-8.6c-10.2-0.5-19.3,4.4-24.8,13.3
	c-1.6,3.2-2.9,6.7-4.4,10.3c-1.6,4.5-3.6,9-5.8,13.3c-5.4,9.5-12.8,14.6-22.8,15.7c-1.2,0.2-2.3-0.4-3-1.3c-0.7-1-0.8-2.3-0.3-3.4
	c0.5-1,1.5-1.7,2.7-1.7c10-1,14.5-6.5,17.8-12.4c2-3.9,3.8-8,5.3-12.2c1.5-3.8,3-7.7,4.8-11.4l0.1-0.1c5.9-10.2,16.7-16.5,28.5-16.6
	h2.1c11.1,0.7,20.8,6.2,25.9,14.8c0.5,0.8,0.7,1.8,0.4,2.7c-0.3,1-1.2,1.8-2.2,2.2c-6.4,1.7-10.6,5.8-11.9,11.8
	c-0.9,4-0.2,8.2,2,11.7c1.4-3.8,3-7.6,4.8-11.2c6.3-10.9,18.1-17.3,30.7-16.7c11,0.7,20.7,6.2,25.8,14.8c0.6,0.8,0.7,1.9,0.3,2.8
	c-0.4,1-1.2,1.8-2.3,2c-10,2.7-13.1,11.3-11.8,18.1c1.4,7.2,7.9,14.9,22,14.9c1.1-0.1,2.2,0.5,2.8,1.5c0.6,1.1,0.6,2.4,0,3.4
	c-0.6,1-1.7,1.6-2.9,1.5l0,0c-18.1,0-26.5-10.8-28.2-20.1c-1.9-9.8,3.1-19.6,12.2-23.8c-4.8-5.1-11.3-8.2-18.3-8.5
	c-10.1-0.6-19.6,4.6-24.6,13.3c-1.6,3.2-2.9,6.7-4.4,10.3c-1.6,4.5-3.6,9-5.8,13.3c-5.4,9.5-12.8,14.6-22.8,15.7L189.3,197z
	 M189.1,193.7C189.1,193.7,189.1,193.8,189.1,193.7c1.7-0.1,3.3-0.4,4.9-0.9C192.4,193.3,190.8,193.6,189.1,193.7L189.1,193.7z
	 M212.3,173.9c-0.9,2-1.8,4-2.9,5.9c-0.6,1.1-1.3,2.3-2.1,3.4c0.8-1.1,1.5-2.3,2.2-3.4C210.5,177.9,211.4,175.9,212.3,173.9
	L212.3,173.9z M139.5,178.6c0,0,0,0.1,0,0.1c1.9-0.2,3.7-0.6,5.5-1.2C143.2,178.1,141.3,178.4,139.5,178.6L139.5,178.6z M213,172.2
	L213,172.2c0.7-1.8,1.4-3.5,2.1-5.3c1-2.7,2.1-5.4,3.3-8c-1.2,2.7-2.3,5.5-3.4,8.2c-0.4,0.9-0.7,1.8-1.1,2.7L213,172.2z M208,165.3
	c1,2.3,2.4,4.4,4.2,6.2l0,0l-1.1-1.2C209.9,168.7,208.8,167,208,165.3z M245.6,141.1c0.5,0,1.1,0,1.6,0c8.6,0.4,16.7,4.6,22,11.4
	l1.2,1.6c-4.6-7.5-13.4-12.5-23.2-13.1c-1.9-0.1-3.7,0-5.6,0.2C243,141.2,244.3,141.1,245.6,141.1L245.6,141.1z M207,152.9
	c-0.1,0.2-0.1,0.4-0.1,0.6l-0.1,0.3c0-0.1,0-0.2,0.1-0.3S207,153.1,207,152.9z M196.1,126c0.5,0,1.1,0,1.6,0
	c8.9,0.5,17.1,4.9,21.9,11.6l1.2,1.7h0.1l0,0l0,0c-4.6-7.7-13.3-12.7-23.3-13.3h-2c-1.7,0-3.4,0.2-5.1,0.5
	C192.4,126.2,194.3,126,196.1,126z"/>
</svg>
