<svg id="Calque_1" data-name="Calque 1" xmlns="http://www.w3.org/2000/svg" viewBox="0 0 300 300"><title>weather</title><path d="M151,16.39A134.28,134.28,0,0,1,246,245.62,134.28,134.28,0,1,1,56.05,55.72a133.4,133.4,0,0,1,95-39.33m0-3.22a137.5,137.5,0,1,0,137.5,137.5A137.5,137.5,0,0,0,151,13.17Z"/><path d="M212.09,110.23A41.65,41.65,0,0,0,134,93a32.57,32.57,0,0,0-12.27-2.43,32.08,32.08,0,0,0-29.59,19.51,22.49,22.49,0,0,0,.34,45h117a22.49,22.49,0,0,0,2.58-44.83Zm-5,5a3,3,0,0,0,2.15.86h.28a16.52,16.52,0,0,1,0,33h-117a16.52,16.52,0,1,1,0-33c.5,0,1,0,1.43.07a3,3,0,0,0,3-2,26.31,26.31,0,0,1,24.77-17.59,26,26,0,0,1,12.23,3,3,3,0,0,0,4.11-1.39A35.68,35.68,0,0,1,206.21,113v.12A3,3,0,0,0,207.1,115.21Z"/><path d="M165.2,183.52h-8.52L163.32,166a3,3,0,0,0-2.79-4h-14.2a3,3,0,0,0-2.87,2.16l-8.56,29.74a3.05,3.05,0,0,0,.49,2.63,3,3,0,0,0,2.38,1.19h6.68L134,225.93a3,3,0,0,0,5.25,2.75l28.39-40.46a3,3,0,0,0-2.44-4.7Zm-14,9.43a3,3,0,0,0-2.45-1.28h-7l6.84-23.77h7.63l-6.64,17.55a3,3,0,0,0,2.79,4h7.1l-11.89,16.94,4-10.74A3,3,0,0,0,151.18,193Z"/></svg>