<?xml version="1.0" encoding="utf-8"?>
<!-- Generator: Adobe Illustrator 22.1.0, SVG Export Plug-In . SVG Version: 6.00 Build 0)  -->
<svg version="1.1" id="Calque_1" xmlns="http://www.w3.org/2000/svg" xmlns:xlink="http://www.w3.org/1999/xlink" x="0px" y="0px"
	 viewBox="0 0 300 300" style="enable-background:new 0 0 300 300;" xml:space="preserve">
<style type="text/css">
	.st0{fill:#00ACCC;}
</style>
<title>weather</title>
<path class="st0" d="M151,16.4c74.2,0,134.3,60.1,134.3,134.2c0,35.6-14.1,69.8-39.3,95c-52.4,52.5-137.5,52.5-189.9,0
	S3.6,108.2,56,55.7C81.2,30.4,115.4,16.3,151,16.4 M151.1,13.2c-75.9,0-137.5,61.6-137.5,137.5S75.1,288.2,151,288.2
	s137.5-61.6,137.5-137.5l0,0C288.5,74.7,227,13.2,151.1,13.2C151,13.2,151,13.2,151.1,13.2L151.1,13.2z"/>
<path class="st0" d="M212.1,110.2c-1.5-23-21.4-40.3-44.3-38.8c-14.2,0.9-26.9,9.1-33.8,21.6c-3.9-1.6-8.1-2.4-12.3-2.4
	c-12.9,0-24.5,7.7-29.6,19.5c-12.4,0.1-22.4,10.2-22.3,22.7s10.2,22.4,22.7,22.3h117c12.4,0,22.5-10.1,22.5-22.5
	C232,121.2,223.4,111.6,212.1,110.2L212.1,110.2z M207.1,115.2c0.6,0.6,1.3,0.9,2.1,0.9h0.3c9.1,0.4,16.1,8.2,15.7,17.3
	c-0.4,8.5-7.2,15.3-15.7,15.7h-117c-9.1,0.4-16.9-6.6-17.3-15.7s6.6-16.9,15.7-17.3c0.5,0,1.1,0,1.6,0c0.5,0,1,0,1.4,0.1
	c1.3,0.1,2.6-0.7,3-2c3.7-10.5,13.6-17.6,24.8-17.6c4.3,0,8.5,1,12.2,3c1.5,0.8,3.3,0.2,4-1.3c0,0,0-0.1,0.1-0.1
	c8.2-17.9,29.3-25.8,47.3-17.7c12.7,5.8,20.9,18.5,20.9,32.5v0.1C206.2,113.9,206.5,114.7,207.1,115.2L207.1,115.2z"/>
<path class="st0" d="M165.2,183.5h-8.5l6.6-17.5c0.6-1.6-0.3-3.3-1.8-3.8c-0.3-0.1-0.6-0.2-1-0.2h-14.2c-1.3,0-2.5,0.9-2.9,2.2
	l-8.6,29.7c-0.3,0.9-0.1,1.9,0.5,2.6c0.6,0.7,1.4,1.2,2.4,1.2h6.7L134,225.9c-0.5,1.6,0.3,3.3,1.9,3.8c1.2,0.4,2.6,0,3.4-1.1
	l28.4-40.5c0.9-1.4,0.6-3.2-0.8-4.2C166.4,183.7,165.8,183.5,165.2,183.5z M151.2,193c-0.6-0.8-1.5-1.3-2.4-1.3h-7l6.8-23.8h7.6
	l-6.6,17.6c-0.6,1.6,0.3,3.3,1.8,3.8c0.3,0.1,0.6,0.2,1,0.2h7.1l-11.9,16.9l4-10.7C151.9,194.8,151.7,193.8,151.2,193L151.2,193z"/>
</svg>
