<?xml version="1.0" encoding="utf-8"?>
<!-- Generator: Adobe Illustrator 22.1.0, SVG Export Plug-In . SVG Version: 6.00 Build 0)  -->
<svg version="1.1" id="Calque_1" xmlns="http://www.w3.org/2000/svg" xmlns:xlink="http://www.w3.org/1999/xlink" x="0px" y="0px"
	 viewBox="0 0 300 300" style="enable-background:new 0 0 300 300;" xml:space="preserve">
<style type="text/css">
	.st0{fill:#00ACCC;}
</style>
<title>weather</title>
<path class="st0" d="M152,19.7c74.2-0.1,134.3,60,134.4,134.2c0,35.7-14.1,69.9-39.4,95.1c-52.5,52.5-137.5,52.5-190,0
	S4.6,111.5,57,59C82.2,33.8,116.4,19.6,152,19.7 M152.1,16.5C76.1,16.5,14.5,78,14.5,153.9c0,75.9,61.5,137.5,137.4,137.5
	S289.5,230,289.5,154c0,0,0,0,0,0C289.5,78.1,227.9,16.5,152.1,16.5L152.1,16.5z"/>
<path class="st0" d="M99,145.9c-2.1,5-4.5,9.8-7.1,14.5c-14.9,27.1-48.4,27.8-68.6,29.8c-4.6,0.5-4.1,7.6,0.8,7.4
	c22.6-2.5,58.5-5.4,74.4-33.6c9.3-16.9,14.7-36.8,22.9-53.2c14.2-23.8,37.1-33,59-31.9c18.8,1.1,36.3,10.1,46.9,24.3
	c-23.2,8.7-33.6,31.1-29.8,51.6c6.7,36.7,45.6,42.3,84,42.3c4.9,0.3,4.9-7.4,0-7.1c-35.7,0-70.6-3.4-76.9-36.6
	c-3.6-18.6,6.3-38.8,29.5-45.1c1.8-0.3,3-2.1,2.7-3.9c-0.1-0.5-0.3-0.9-0.5-1.3c-11.5-19.1-33-30.3-55.4-31.7
	c-24.3-1.1-50.2,9.6-65.8,35.8l0,0c-5.2,10.1-9,20.8-13.1,31.1L99,145.9z"/>
</svg>
