<svg id="Calque_1" data-name="Calque 1" xmlns="http://www.w3.org/2000/svg" viewBox="0 0 300 300"><title>weather</title><path d="M153,18.72A134.28,134.28,0,0,1,248,248,134.28,134.28,0,1,1,58.05,58.05a133.4,133.4,0,0,1,95-39.33m0-3.22A137.5,137.5,0,1,0,290.5,153,137.5,137.5,0,0,0,153,15.5Z"/><path d="M76.56,124.41a31.54,31.54,0,0,0-27.1,15.85h0c-3.87,7.74-6.29,16.57-10.16,23.59S30.23,176.07,20.19,177c-2.18.12-1.82,3.51.36,3.27,11-1.22,17.3-7.38,21.53-14.89s6.54-16.33,10.17-23.59c6.41-10.53,16.45-14.64,26.25-14.16,8.23.49,16.1,4.48,20.69,10.89a20.33,20.33,0,0,0-13.06,14.52,21.08,21.08,0,0,0,5.81,19.48A62.4,62.4,0,0,1,88.79,179c-3.87,7-9,12.22-19,13.19a1.65,1.65,0,0,0,.37,3.27c11-1.21,17.3-7.38,21.53-14.88s6.54-16.34,10.17-23.6a28.45,28.45,0,0,1,46.94-3.38,20.3,20.3,0,0,0-13.19,22.86c1.81,9.93,10.89,18.76,26.74,18.76a1.58,1.58,0,1,0,0-3.15c-14.64,0-22-7.86-23.59-16.21s2.78-17.18,13.06-20a1.5,1.5,0,0,0,1-2.3c-5.08-8.47-14.64-13.43-24.56-14a31.71,31.71,0,0,0-29.16,15.85h0c-2.3,4.48-4,9.2-5.81,13.79a17.41,17.41,0,0,1-4-15.36c1.33-5.93,5.57-11,13-12.95a1.62,1.62,0,0,0,1-2.42C98.1,130,88.55,125,78.62,124.41Z"/><path d="M70.11,197a3.23,3.23,0,0,1-3.33-3,3.18,3.18,0,0,1,2.83-3.5c10.16-1,14.54-6.52,17.77-12.36A52.48,52.48,0,0,0,90,172.89a22.69,22.69,0,0,1-5.47-20.15A21.73,21.73,0,0,1,96.62,137.9a26.24,26.24,0,0,0-18.21-8.62c-10.22-.51-19.26,4.35-24.75,13.33-1.59,3.19-2.93,6.66-4.35,10.33A109.84,109.84,0,0,1,43.5,166.2c-5.35,9.48-12.8,14.61-22.77,15.71a3.18,3.18,0,0,1-3-1.31,3.45,3.45,0,0,1-.3-3.45,3,3,0,0,1,2.66-1.72c10-1,14.47-6.52,17.8-12.38a101,101,0,0,0,5.31-12.15c1.46-3.78,3-7.69,4.81-11.36l.06-.11C54.34,129,64.71,122.94,76.54,122.8h2.08c11.1.67,20.75,6.19,25.92,14.77a3,3,0,0,1,.37,2.66,3.45,3.45,0,0,1-2.18,2.16c-6.37,1.67-10.56,5.84-11.89,11.77a15.48,15.48,0,0,0,2,11.7,113.34,113.34,0,0,1,4.81-11.22,33.43,33.43,0,0,1,30.66-16.72c11,.67,20.67,6.19,25.84,14.77a3,3,0,0,1,.32,2.8,3.15,3.15,0,0,1-2.29,1.95c-10,2.7-13.13,11.27-11.83,18.09,1.36,7.2,7.85,14.9,22,14.9a3,3,0,0,1,2.78,1.47,3.4,3.4,0,0,1,0,3.43,3.07,3.07,0,0,1-2.87,1.47h0c-18.1,0-26.53-10.82-28.22-20.08a21.77,21.77,0,0,1,12.16-23.79,26.84,26.84,0,0,0-18.29-8.52,26.5,26.5,0,0,0-24.63,13.32c-1.59,3.19-2.93,6.66-4.35,10.33a113.09,113.09,0,0,1-5.81,13.26c-5.36,9.48-12.8,14.61-22.78,15.71ZM70,193.76s0,.06,0,.08a27.94,27.94,0,0,0,4.93-1A28.41,28.41,0,0,1,70,193.76ZM93.1,173.91a58.43,58.43,0,0,1-2.92,5.88c-.63,1.14-1.31,2.28-2.07,3.4a36.84,36.84,0,0,0,2.18-3.44C91.31,177.89,92.23,175.92,93.1,173.91Zm-72.76,4.73a.15.15,0,0,0,0,.1,27.66,27.66,0,0,0,5.49-1.16,28.17,28.17,0,0,1-5.52,1.06Zm73.48-6.48h0c.72-1.75,1.4-3.52,2.08-5.27,1-2.68,2.1-5.42,3.26-8-1.22,2.67-2.3,5.46-3.35,8.18-.35.9-.7,1.81-1.06,2.7Zm-5-6.91a20,20,0,0,0,4.21,6.17l0,0-1-1.22A20.25,20.25,0,0,1,88.86,165.25Zm37.56-24.1c.55,0,1.1,0,1.65,0a29.78,29.78,0,0,1,22,11.41l1.2,1.61c-4.58-7.48-13.43-12.48-23.16-13.07a32,32,0,0,0-5.56.24A32.62,32.62,0,0,1,126.42,141.15ZM87.84,152.86c0,.19-.1.39-.14.58l-.06.3.06-.3C87.75,153.25,87.79,153.05,87.84,152.86ZM77,126c.54,0,1.08,0,1.62,0,8.92.53,17.11,4.85,21.92,11.56l1.22,1.71.09,0h0l0,0c-4.61-7.69-13.32-12.65-23.27-13.25h-2a30.6,30.6,0,0,0-5,.47A30.87,30.87,0,0,1,77,126Z"/><path d="M195.72,124.41a31.52,31.52,0,0,0-27.1,15.85h0c-3.88,7.74-6.29,16.57-10.16,23.59s-9.08,12.22-19.12,13.19c-2.18.12-1.82,3.51.36,3.27,11-1.22,17.3-7.38,21.54-14.89s6.53-16.33,10.16-23.59c6.42-10.53,16.46-14.64,26.26-14.16,8.22.49,16.09,4.48,20.69,10.89a20.33,20.33,0,0,0-13.07,14.52,21.08,21.08,0,0,0,5.81,19.48,62.4,62.4,0,0,1-3.15,6.41c-3.87,7-8.95,12.22-19,13.19a1.65,1.65,0,0,0,.36,3.27c11-1.21,17.3-7.38,21.54-14.88S217.38,164.21,221,157A28.45,28.45,0,0,1,268,153.57a20.3,20.3,0,0,0-13.18,22.86c1.81,9.93,10.88,18.76,26.73,18.76a1.58,1.58,0,1,0,0-3.15c-14.64,0-22-7.86-23.59-16.21s2.78-17.18,13.07-20a1.49,1.49,0,0,0,1-2.3c-5.08-8.47-14.64-13.43-24.56-14a31.69,31.69,0,0,0-29.15,15.85h0a148.34,148.34,0,0,0-5.81,13.79,17.41,17.41,0,0,1-4-15.36c1.33-5.93,5.56-11,12.94-12.95a1.62,1.62,0,0,0,1-2.42c-5.08-8.47-14.64-13.43-24.56-14Z"/><path d="M189.26,197a3.23,3.23,0,0,1-3.33-3,3.18,3.18,0,0,1,2.83-3.5c10.16-1,14.55-6.52,17.77-12.36a52.54,52.54,0,0,0,2.65-5.31,22.69,22.69,0,0,1-5.47-20.15,21.69,21.69,0,0,1,12.06-14.84,26.2,26.2,0,0,0-18.21-8.62c-10.23-.51-19.25,4.35-24.75,13.33-1.59,3.19-2.93,6.66-4.35,10.33a109.84,109.84,0,0,1-5.81,13.26c-5.35,9.48-12.8,14.61-22.77,15.71a3.18,3.18,0,0,1-3-1.31,3.45,3.45,0,0,1-.3-3.45,3.07,3.07,0,0,1,2.66-1.72c10-1,14.47-6.52,17.8-12.38a98.91,98.91,0,0,0,5.31-12.16c1.47-3.78,3-7.68,4.81-11.35l.06-.11A33.18,33.18,0,0,1,195.7,122.8h2.07c11.1.67,20.75,6.19,25.92,14.77a3,3,0,0,1,.37,2.66,3.42,3.42,0,0,1-2.18,2.16c-6.37,1.67-10.55,5.84-11.88,11.77a15.48,15.48,0,0,0,2,11.7,118.3,118.3,0,0,1,4.81-11.22,33.46,33.46,0,0,1,30.67-16.72c11,.67,20.67,6.19,25.84,14.77a3,3,0,0,1,.31,2.79,3.14,3.14,0,0,1-2.28,2c-10,2.7-13.14,11.27-11.84,18.08,1.36,7.21,7.86,14.91,22,14.91a3,3,0,0,1,2.78,1.47,3.35,3.35,0,0,1,0,3.43,3.07,3.07,0,0,1-2.87,1.47h0c-18.11,0-26.54-10.82-28.23-20.08a21.76,21.76,0,0,1,12.17-23.79,26.88,26.88,0,0,0-18.3-8.52,26.51,26.51,0,0,0-24.63,13.32c-1.59,3.19-2.93,6.66-4.35,10.33a109.84,109.84,0,0,1-5.81,13.26c-5.35,9.48-12.8,14.61-22.77,15.71Zm-.14-3.28a.3.3,0,0,1,0,.08,28.24,28.24,0,0,0,4.94-1A28.53,28.53,0,0,1,189.12,193.76Zm23.14-19.87a58.81,58.81,0,0,1-2.93,5.9c-.63,1.14-1.31,2.29-2.08,3.41a34,34,0,0,0,2.19-3.45C210.47,177.89,211.39,175.91,212.26,173.89Zm-72.77,4.75a.62.62,0,0,0,0,.1,27.51,27.51,0,0,0,5.49-1.16,28.17,28.17,0,0,1-5.52,1.06ZM213,172.16h0c.72-1.75,1.41-3.52,2.08-5.27,1-2.67,2.1-5.41,3.26-8-1.22,2.67-2.3,5.46-3.35,8.17q-.53,1.37-1.05,2.7ZM208,165.25a19.8,19.8,0,0,0,4.21,6.17l0,0-1.06-1.22A19.92,19.92,0,0,1,208,165.25Zm37.56-24.1c.54,0,1.09,0,1.64,0a29.76,29.76,0,0,1,22,11.41l1.21,1.61c-4.58-7.48-13.44-12.48-23.16-13.07a32.08,32.08,0,0,0-5.57.24A32.67,32.67,0,0,1,245.58,141.15ZM207,152.86c-.06.19-.1.39-.15.58l-.06.3c0-.1,0-.2.07-.3S207,153.05,207,152.86ZM196.11,126c.54,0,1.08,0,1.63,0,8.91.53,17.1,4.85,21.92,11.56l1.22,1.71.08,0h0v0c-4.62-7.69-13.32-12.65-23.28-13.25h-2a30.23,30.23,0,0,0-5.06.48A30.57,30.57,0,0,1,196.11,126Z"/></svg>