<?xml version="1.0" encoding="utf-8"?>
<!-- Generator: Adobe Illustrator 22.1.0, SVG Export Plug-In . SVG Version: 6.00 Build 0)  -->
<svg version="1.1" id="Calque_1" xmlns="http://www.w3.org/2000/svg" xmlns:xlink="http://www.w3.org/1999/xlink" x="0px" y="0px"
	 viewBox="0 0 300 300" style="enable-background:new 0 0 300 300;" xml:space="preserve">
<style type="text/css">
	.st0{fill:#00ACCC;}
</style>
<title>weather</title>
<path class="st0" d="M151,16.7c74.2-0.1,134.3,60,134.4,134.2c0,35.7-14.1,69.9-39.4,95.1c-52.5,52.5-137.5,52.5-190,0
	S3.6,108.5,56,56C81.2,30.8,115.4,16.6,151,16.7 M151.1,13.5C75.1,13.5,13.5,75,13.5,150.9c0,75.9,61.5,137.5,137.4,137.5
	S288.5,227,288.5,151c0,0,0,0,0,0C288.5,75.1,226.9,13.5,151.1,13.5L151.1,13.5z"/>
<rect x="15.6" y="169.8" class="st0" width="268.5" height="7.5"/>
</svg>
