<?xml version="1.0" encoding="utf-8"?>
<!-- Generator: Adobe Illustrator 22.1.0, SVG Export Plug-In . SVG Version: 6.00 Build 0)  -->
<svg version="1.1" id="Calque_1" xmlns="http://www.w3.org/2000/svg" xmlns:xlink="http://www.w3.org/1999/xlink" x="0px" y="0px"
	 viewBox="0 0 300 300" style="enable-background:new 0 0 300 300;" xml:space="preserve">
<style type="text/css">
	.st0{fill:#00ACCC;}
</style>
<title>weather</title>
<path class="st0" d="M151.7,17C225.8,17,286,77.1,286,151.2c0,35.6-14.1,69.8-39.3,95c-52.4,52.5-137.5,52.5-189.9,0
	s-52.5-137.5,0-189.9C81.8,31,116,16.9,151.7,17 M151.7,13.8c-75.9,0-137.5,61.6-137.5,137.5s61.6,137.5,137.5,137.5
	s137.5-61.6,137.5-137.5S227.6,13.8,151.7,13.8z"/>
<path class="st0" d="M226.1,128.6c-3.6-3.6-8.3-5.9-13.3-6.4c-1.5-23-21.4-40.3-44.4-38.8c-14.2,1-26.9,9.1-33.7,21.5
	c-3.9-1.6-8.1-2.4-12.3-2.4c-12.9,0-24.5,7.7-29.6,19.5c-12.4,0.1-22.4,10.2-22.3,22.7s10.2,22.4,22.7,22.3h117
	c12.4,0,22.5-10.1,22.5-22.5C232.6,138.5,230.3,132.8,226.1,128.6L226.1,128.6z M226.7,144.5c0,9.1-7.4,16.5-16.5,16.5h-117
	c-9.1,0.4-16.9-6.6-17.3-15.7s6.6-16.9,15.7-17.3c0.5,0,1.1,0,1.6,0c0.5,0,1,0,1.4,0.1c1.4,0.1,2.6-0.7,3.1-2
	c3.7-10.5,13.6-17.6,24.8-17.6c4.3,0,8.5,1,12.2,3c1.5,0.8,3.3,0.2,4-1.3c0,0,0-0.1,0.1-0.1c8.2-17.9,29.4-25.8,47.3-17.6
	c12.7,5.8,20.8,18.5,20.8,32.5c0,0.8,0.3,1.6,0.9,2.1c0.6,0.6,1.3,0.9,2.1,0.9h0.3C219.3,128,226.7,135.4,226.7,144.5L226.7,144.5z"
	/>
<path class="st0" d="M101.1,181.5l-8.7,8.7c-1.2,1.2-1.2,3.1,0,4.2c1.2,1.2,3.1,1.2,4.2,0l8.7-8.7c1.2-1.2,1.2-3.1,0-4.2
	C104.1,180.4,102.3,180.4,101.1,181.5z"/>
<path class="st0" d="M101.1,205.4l-8.7,8.7c-1.2,1.2-1.2,3.1,0,4.2c1.2,1.2,3.1,1.2,4.2,0l8.7-8.7c1.2-1.2,1.2-3.1,0-4.2
	C104.1,204.3,102.3,204.3,101.1,205.4z"/>
<path class="st0" d="M136.3,181.5l-8.7,8.7c-1.2,1.2-1.2,3.1,0,4.2c1.2,1.2,3.1,1.2,4.2,0l8.7-8.7c1-1.3,0.8-3.2-0.4-4.2
	C139,180.6,137.4,180.6,136.3,181.5L136.3,181.5z"/>
<path class="st0" d="M136.3,205.4l-8.7,8.7c-1.2,1.2-1.2,3.1,0,4.2c1.2,1.2,3.1,1.2,4.2,0l8.7-8.7c1.1-1.3,0.9-3.2-0.4-4.2
	C139,204.5,137.4,204.5,136.3,205.4L136.3,205.4z"/>
<path class="st0" d="M171.5,181.5l-8.7,8.7c-1.2,1.2-1.2,3.1,0,4.2c1.2,1.2,3.1,1.2,4.2,0l8.7-8.7c1.3-1,1.5-2.9,0.4-4.2
	s-2.9-1.5-4.2-0.4C171.8,181.2,171.6,181.4,171.5,181.5L171.5,181.5z"/>
<path class="st0" d="M171.5,205.4l-8.7,8.7c-1.2,1.2-1.2,3.1,0,4.2c1.2,1.2,3.1,1.2,4.2,0l8.7-8.7c1.3-1.1,1.4-2.9,0.4-4.2
	c-1.1-1.3-2.9-1.4-4.2-0.4C171.7,205.1,171.6,205.3,171.5,205.4L171.5,205.4z"/>
<path class="st0" d="M206.7,181.5l-8.7,8.7c-1,1.3-0.8,3.2,0.4,4.2c1.1,0.9,2.7,0.9,3.8,0l8.7-8.7c0.6-0.6,0.9-1.3,0.9-2.1
	c0-1.7-1.4-3-3-3C208,180.7,207.2,181,206.7,181.5L206.7,181.5z"/>
<path class="st0" d="M206.7,205.4l-8.7,8.7c-1.2,1.2-1.2,3.1,0,4.2c0.6,0.6,1.3,0.9,2.1,0.9c0.8,0,1.6-0.3,2.1-0.9l8.7-8.7
	c1.3-1.1,1.4-2.9,0.4-4.2c-1.1-1.3-2.9-1.4-4.2-0.4C206.9,205.1,206.8,205.3,206.7,205.4L206.7,205.4z"/>
</svg>
