<svg id="Calque_1" data-name="Calque 1" xmlns="http://www.w3.org/2000/svg" viewBox="0 0 300 300"><title>weather</title><path d="M150.5,13.72A134.28,134.28,0,0,1,245.45,243,134.28,134.28,0,1,1,55.55,53.05a133.4,133.4,0,0,1,95-39.33m0-3.22A137.5,137.5,0,1,0,288,148,137.5,137.5,0,0,0,150.5,10.5Z"/><path d="M150.5,107.88A40.12,40.12,0,1,0,190.62,148,40.17,40.17,0,0,0,150.5,107.88Zm0,73.71A33.6,33.6,0,1,1,184.09,148,33.63,33.63,0,0,1,150.5,181.59Z"/><path d="M150.5,89.07a3.26,3.26,0,0,0,3.26-3.26V70.26a3.26,3.26,0,1,0-6.52,0V85.81A3.26,3.26,0,0,0,150.5,89.07Z"/><path d="M104.21,106.33a3.26,3.26,0,0,0,4.62-4.61l-11-11A3.26,3.26,0,0,0,92.27,93a3.24,3.24,0,0,0,1,2.3Z"/><path d="M88.31,144.74H72.76a3.26,3.26,0,0,0,0,6.52H88.31a3.26,3.26,0,0,0,0-6.52Zm0,5.52Z"/><path d="M104.22,189.67l-11,11a3.27,3.27,0,0,0,4.62,4.62l11-11a3.26,3.26,0,1,0-4.61-4.61Z"/><path d="M150.5,206.93a3.26,3.26,0,0,0-3.26,3.26v15.55a3.26,3.26,0,0,0,6.52,0V210.19A3.26,3.26,0,0,0,150.5,206.93Z"/><path d="M196.78,189.67a3.26,3.26,0,0,0-4.61,4.61l11,11a3.24,3.24,0,0,0,2.3.95,3.26,3.26,0,0,0,2.31-5.57Z"/><path d="M228.24,144.74H212.69a3.26,3.26,0,0,0,0,6.52h15.55a3.26,3.26,0,0,0,0-6.52Z"/><path d="M203.17,90.72l-11,11a3.25,3.25,0,0,0-1,2.31,3.26,3.26,0,0,0,5.57,2.3l11-11a3.24,3.24,0,0,0,.95-2.3,3.28,3.28,0,0,0-.95-2.31A3.34,3.34,0,0,0,203.17,90.72Z"/></svg>