<?xml version="1.0" encoding="utf-8"?>
<!-- Generator: Adobe Illustrator 22.1.0, SVG Export Plug-In . SVG Version: 6.00 Build 0)  -->
<svg version="1.1" id="Calque_1" xmlns="http://www.w3.org/2000/svg" xmlns:xlink="http://www.w3.org/1999/xlink" x="0px" y="0px"
	 viewBox="0 0 300 300" style="enable-background:new 0 0 300 300;" xml:space="preserve">
<style type="text/css">
	.st0{fill:#00ACCC;}
</style>
<title>weather</title>
<path class="st0" d="M150.5,13.7c74.2,0,134.3,60.1,134.3,134.2c0,35.7-14.2,69.9-39.4,95C193,295.4,108,295.4,55.5,243
	S3.1,105.5,55.5,53l0,0C80.7,27.8,114.9,13.6,150.5,13.7 M150.6,10.5C74.6,10.5,13,72,13,147.9c0,75.9,61.5,137.5,137.4,137.5
	S288,224,288,148c0,0,0,0,0,0C288,72.1,226.4,10.5,150.6,10.5L150.6,10.5z"/>
<path class="st0" d="M150.5,107.9c-22.2,0-40.1,18-40.1,40.1s18,40.1,40.1,40.1s40.1-18,40.1-40.1
	C190.6,125.9,172.6,107.9,150.5,107.9z M150.5,181.6c-18.6,0-33.6-15-33.6-33.6c0-18.6,15-33.6,33.6-33.6c18.6,0,33.6,15,33.6,33.6
	c0,0,0,0,0,0C184.1,166.5,169,181.6,150.5,181.6z"/>
<path class="st0" d="M150.5,89.1c1.8,0,3.3-1.5,3.3-3.3V70.3c0-1.8-1.5-3.3-3.3-3.3c-1.8,0-3.3,1.5-3.3,3.3v15.5
	C147.2,87.6,148.7,89.1,150.5,89.1L150.5,89.1z"/>
<path class="st0" d="M104.2,106.3c1.3,1.3,3.3,1.3,4.6,0c1.3-1.3,1.3-3.3,0-4.6l0,0l-11-11c-1.3-1.3-3.3-1.3-4.6,0
	c-0.6,0.6-0.9,1.4-0.9,2.3c0,0.9,0.4,1.7,1,2.3L104.2,106.3z"/>
<path class="st0" d="M88.3,144.7H72.8c-1.8,0-3.3,1.5-3.3,3.3c0,1.8,1.5,3.3,3.3,3.3h15.5c1.8,0,3.3-1.5,3.3-3.3
	C91.6,146.2,90.1,144.7,88.3,144.7z"/>
<path class="st0" d="M104.2,189.7l-11,11c-1.2,1.3-1.1,3.4,0.2,4.6c1.2,1.1,3.2,1.1,4.4,0l11-11c1.3-1.3,1.3-3.3,0.1-4.6
	C107.6,188.4,105.6,188.4,104.2,189.7C104.3,189.6,104.2,189.7,104.2,189.7L104.2,189.7z"/>
<path class="st0" d="M150.5,206.9c-1.8,0-3.3,1.5-3.3,3.3v15.6c0,1.8,1.5,3.3,3.3,3.3c1.8,0,3.3-1.5,3.3-3.3v-15.5
	C153.8,208.4,152.3,206.9,150.5,206.9L150.5,206.9z"/>
<path class="st0" d="M196.8,189.7c-1.3-1.3-3.4-1.2-4.6,0.1c-1.2,1.3-1.2,3.3,0,4.6l11,11c0.6,0.6,1.4,1,2.3,0.9
	c1.8,0,3.3-1.4,3.3-3.3c0-0.9-0.3-1.7-1-2.3L196.8,189.7z"/>
<path class="st0" d="M228.2,144.7h-15.6c-1.8,0-3.3,1.5-3.3,3.3c0,1.8,1.5,3.3,3.3,3.3l0,0h15.6c1.8,0,3.3-1.5,3.3-3.3
	C231.5,146.2,230,144.7,228.2,144.7z"/>
<path class="st0" d="M203.2,90.7l-11,11c-0.6,0.6-1,1.4-1,2.3c0,1.8,1.5,3.3,3.3,3.3c0.9,0,1.7-0.3,2.3-1l11-11
	c0.6-0.6,1-1.4,0.9-2.3c0-0.9-0.3-1.7-0.9-2.3C206.5,89.5,204.5,89.5,203.2,90.7z"/>
</svg>
