<?xml version="1.0" encoding="utf-8"?>
<!-- Generator: Adobe Illustrator 22.1.0, SVG Export Plug-In . SVG Version: 6.00 Build 0)  -->
<svg version="1.1" id="Calque_1" xmlns="http://www.w3.org/2000/svg" xmlns:xlink="http://www.w3.org/1999/xlink" x="0px" y="0px"
	 viewBox="0 0 300 300" style="enable-background:new 0 0 300 300;" xml:space="preserve">
<style type="text/css">
	.st0{fill:#00ACCC;}
</style>
<title>weather</title>
<path class="st0" d="M152.2,12.6c74.2,0,134.3,60.1,134.3,134.2c0,35.6-14.1,69.8-39.3,95c-52.4,52.5-137.5,52.5-189.9,0
	s-52.5-137.5,0-189.9C82.3,26.6,116.5,12.5,152.2,12.6 M152.2,9.3C76.2,9.3,14.7,70.9,14.7,146.8s61.6,137.5,137.5,137.5
	s137.5-61.6,137.5-137.5l0,0C289.7,70.9,228.1,9.3,152.2,9.3z"/>
<path class="st0" d="M229.6,156.6c-3.6-3.6-8.3-5.9-13.3-6.4c-1.4-20.9-18.2-37.5-39.1-38.7c-4.3-7.8-12.5-12.6-21.3-12.6
	c-3,0-5.9,0.5-8.6,1.6c-8.7-15-27.8-20.1-42.8-11.4c-8.8,5.1-14.6,14.2-15.5,24.4c-9.4,1.5-15.9,10.3-14.4,19.8
	c1.3,8.4,8.5,14.6,17,14.6h6.2c-0.4,0.8-0.8,1.5-1.1,2.3c-12.4,0.1-22.4,10.2-22.3,22.6s10.2,22.4,22.6,22.3h116.8
	c12.4,0,22.5-10,22.5-22.5C236.2,166.5,233.8,160.8,229.6,156.6z M101.7,141.7H91.4c-6.2-0.2-11.2-5.4-11-11.6c0.2-6,5-10.8,11-11
	h0.2c0.8,0,1.6-0.3,2.2-0.8c0.6-0.6,0.9-1.3,0.9-2.1c0-14,11.3-25.4,25.3-25.4c9.9,0,19,5.8,23.1,14.8c0.7,1.5,2.5,2.1,4,1.4
	c0,0,0.1,0,0.1-0.1c7.8-4.1,17.4-2.1,22.9,4.7l-0.4,0.1c-0.6,0.1-1.1,0.2-1.7,0.3c-0.2,0-0.5,0.1-0.7,0.1
	c-10.6,1.9-20.1,7.9-26.3,16.6l-0.2,0.3c-0.4,0.6-0.8,1.2-1.2,1.8s-0.7,1.1-1,1.6l-0.3,0.6c-2.6-1.1-5.3-1.8-8.1-2.1
	c-1.4-0.2-2.7-0.3-4.1-0.3l0,0c-0.7,0-1.4,0-2.1,0.1l-0.7,0.1c-0.5,0-0.9,0.1-1.4,0.1l-0.8,0.1c-0.5,0.1-1,0.2-1.5,0.3
	s-1,0.2-1.4,0.3l-0.7,0.2c-0.4,0.1-0.9,0.3-1.3,0.4l-0.3,0.1C110.2,134.1,105.4,137.4,101.7,141.7z M105.4,146.6
	C105.4,146.6,105.4,146.6,105.4,146.6c0.7-0.8,1.3-1.6,2-2.3l0.1-0.1c0.3-0.3,0.6-0.5,0.8-0.8l0.6-0.5l0.7-0.6
	c0.4-0.4,0.9-0.7,1.4-1.1l0,0c0.5-0.4,1.1-0.7,1.6-1.1l0.1-0.1c1.7-1,3.5-1.8,5.4-2.4l0,0c1.3-0.4,2.6-0.7,3.9-0.9h0.2
	c0.5-0.1,1.1-0.1,1.6-0.2h0.4c0.6,0,1.3-0.1,1.9-0.1l0,0c4.3,0,8.4,1,12.2,3c0.2,0.1,0.5,0.2,0.7,0.3c1.4,0.4,2.8-0.3,3.4-1.6
	c5.8-12.6,18.5-20.8,32.4-20.8h0.5c19.5,0.3,35.1,16.1,35.2,35.6c0,0.8,0.3,1.6,0.9,2.1c0.6,0.5,1.3,0.9,2.1,0.9l0,0h0.3
	c9.1,0,16.5,7.4,16.5,16.5s-7.4,16.5-16.5,16.5H96.9c-9.1,0-16.5-7.4-16.5-16.5S87.7,156,96.9,156l0,0c0.5,0,1,0,1.4,0.1
	c1.4,0.1,2.6-0.7,3.1-2C102.3,151.4,103.7,148.9,105.4,146.6z"/>
</svg>
