<svg id="Calque_1" data-name="Calque 1" xmlns="http://www.w3.org/2000/svg" viewBox="0 0 300 300"><title>weather</title><path d="M152,19.72A134.28,134.28,0,0,1,247,249,134.28,134.28,0,1,1,57.05,59.05a133.4,133.4,0,0,1,95-39.33m0-3.22A137.5,137.5,0,1,0,289.5,154,137.5,137.5,0,0,0,152,16.5Z"/><path d="M99,145.89a141.69,141.69,0,0,1-7.11,14.48c-14.93,27.06-48.37,27.8-68.64,29.76-4.64.54-4.09,7.64.82,7.37,22.58-2.49,58.49-5.45,74.38-33.59,9.28-16.92,14.74-36.85,22.93-53.23,14.2-23.75,37.13-33,59-31.95,18.83,1.09,36.31,10.1,46.95,24.3-23.21,8.74-33.58,31.12-29.75,51.6,6.7,36.72,45.58,42.32,84,42.32,4.91.28,4.91-7.37,0-7.1-35.74,0-70.63-3.42-76.88-36.58-3.55-18.57,6.28-38.77,29.49-45.05a3.37,3.37,0,0,0,2.18-5.19c-11.47-19.11-33-30.3-55.42-31.67-24.3-1.09-50.24,9.56-65.8,35.77h0c-5.19,10.1-9,20.75-13.1,31.12Z"/></svg>